<svg width="26" height="20" viewBox="0 0 26 20" fill="none" xmlns="http://www.w3.org/2000/svg">
<path d="M23.8288 0H2.17118C0.970486 0 0 0.959821 0 2.14286V17.8571C0 19.0402 0.970486 20 2.17118 20H23.8288C25.0295 20 26 19.0402 26 17.8571V2.14286C26 0.959821 25.0295 0 23.8288 0ZM2.44201 2.14286H23.558C23.7069 2.14286 23.8288 2.26339 23.8288 2.41071V4.28571H2.17118V2.41071C2.17118 2.26339 2.29306 2.14286 2.44201 2.14286ZM23.558 17.8571H2.44201C2.29306 17.8571 2.17118 17.7366 2.17118 17.5893V10H23.8288V17.5893C23.8288 17.7366 23.7069 17.8571 23.558 17.8571ZM8.66667 13.3929V15.1786C8.66667 15.4732 8.42292 15.7143 8.125 15.7143H4.875C4.57708 15.7143 4.33333 15.4732 4.33333 15.1786V13.3929C4.33333 13.0982 4.57708 12.8571 4.875 12.8571H8.125C8.42292 12.8571 8.66667 13.0982 8.66667 13.3929ZM17.3333 13.3929V15.1786C17.3333 15.4732 17.0896 15.7143 16.7917 15.7143H10.6528C10.3549 15.7143 10.1111 15.4732 10.1111 15.1786V13.3929C10.1111 13.0982 10.3549 12.8571 10.6528 12.8571H16.7917C17.0896 12.8571 17.3333 13.0982 17.3333 13.3929Z" fill="#F0F0F0"/>
</svg>
