<svg width="36" height="36" viewBox="0 0 36 36" fill="none" xmlns="http://www.w3.org/2000/svg">
<path d="M18 0C8.05885 0 0 8.05885 0 18C0 27.9412 8.05885 36 18 36C27.9412 36 36 27.9412 36 18C36 8.05885 27.9412 0 18 0ZM18 3.48387C26.0225 3.48387 32.5161 9.97628 32.5161 18C32.5161 26.0225 26.0237 32.5161 18 32.5161C9.97752 32.5161 3.48387 26.0237 3.48387 18C3.48387 9.97752 9.97628 3.48387 18 3.48387ZM28.1761 12.9387L26.5404 11.2898C26.2017 10.9484 25.6502 10.9461 25.3087 11.2849L15.0493 21.4619L10.7096 17.0869C10.3708 16.7454 9.81936 16.7432 9.47787 17.0819L7.82891 18.7176C7.48742 19.0563 7.48517 19.6078 7.82398 19.9494L14.4129 26.5917C14.7517 26.9332 15.3031 26.9354 15.6446 26.5966L28.1712 14.1705C28.5127 13.8317 28.5148 13.2802 28.1761 12.9387Z" fill="#0B4455"/>
</svg>
