<svg width="83" height="58" viewBox="0 0 83 58" fill="none" xmlns="http://www.w3.org/2000/svg">
<path d="M13.4875 8.28571H7.2625C5.53766 8.28571 4.15 9.67098 4.15 11.3929V24.8571H1.0375C0.466875 24.8571 0 25.3232 0 25.8929V32.1071C0 32.6768 0.466875 33.1429 1.0375 33.1429H4.15V46.6071C4.15 48.329 5.53766 49.7143 7.2625 49.7143H13.4875C15.2123 49.7143 16.6 48.329 16.6 46.6071V11.3929C16.6 9.67098 15.2123 8.28571 13.4875 8.28571ZM81.9625 24.8571H78.85V11.3929C78.85 9.67098 77.4623 8.28571 75.7375 8.28571H69.5125C67.7877 8.28571 66.4 9.67098 66.4 11.3929V46.6071C66.4 48.329 67.7877 49.7143 69.5125 49.7143H75.7375C77.4623 49.7143 78.85 48.329 78.85 46.6071V33.1429H81.9625C82.5331 33.1429 83 32.6768 83 32.1071V25.8929C83 25.3232 82.5331 24.8571 81.9625 24.8571ZM59.1375 0H52.9125C51.1877 0 49.8 1.38527 49.8 3.10714V24.8571H33.2V3.10714C33.2 1.38527 31.8123 0 30.0875 0H23.8625C22.1377 0 20.75 1.38527 20.75 3.10714V54.8929C20.75 56.6147 22.1377 58 23.8625 58H30.0875C31.8123 58 33.2 56.6147 33.2 54.8929V33.1429H49.8V54.8929C49.8 56.6147 51.1877 58 52.9125 58H59.1375C60.8623 58 62.25 56.6147 62.25 54.8929V3.10714C62.25 1.38527 60.8623 0 59.1375 0Z" fill="#0B4455"/>
</svg>
