<svg width="61" height="70" viewBox="0 0 61 70" fill="none" xmlns="http://www.w3.org/2000/svg">
<path d="M20.1518 39.375H14.7054C13.8067 39.375 13.0714 38.6367 13.0714 37.7344V32.2656C13.0714 31.3633 13.8067 30.625 14.7054 30.625H20.1518C21.0504 30.625 21.7857 31.3633 21.7857 32.2656V37.7344C21.7857 38.6367 21.0504 39.375 20.1518 39.375ZM34.8571 37.7344V32.2656C34.8571 31.3633 34.1219 30.625 33.2232 30.625H27.7768C26.8781 30.625 26.1429 31.3633 26.1429 32.2656V37.7344C26.1429 38.6367 26.8781 39.375 27.7768 39.375H33.2232C34.1219 39.375 34.8571 38.6367 34.8571 37.7344ZM47.9286 37.7344V32.2656C47.9286 31.3633 47.1933 30.625 46.2946 30.625H40.8482C39.9496 30.625 39.2143 31.3633 39.2143 32.2656V37.7344C39.2143 38.6367 39.9496 39.375 40.8482 39.375H46.2946C47.1933 39.375 47.9286 38.6367 47.9286 37.7344ZM34.8571 50.8594V45.3906C34.8571 44.4883 34.1219 43.75 33.2232 43.75H27.7768C26.8781 43.75 26.1429 44.4883 26.1429 45.3906V50.8594C26.1429 51.7617 26.8781 52.5 27.7768 52.5H33.2232C34.1219 52.5 34.8571 51.7617 34.8571 50.8594ZM21.7857 50.8594V45.3906C21.7857 44.4883 21.0504 43.75 20.1518 43.75H14.7054C13.8067 43.75 13.0714 44.4883 13.0714 45.3906V50.8594C13.0714 51.7617 13.8067 52.5 14.7054 52.5H20.1518C21.0504 52.5 21.7857 51.7617 21.7857 50.8594ZM47.9286 50.8594V45.3906C47.9286 44.4883 47.1933 43.75 46.2946 43.75H40.8482C39.9496 43.75 39.2143 44.4883 39.2143 45.3906V50.8594C39.2143 51.7617 39.9496 52.5 40.8482 52.5H46.2946C47.1933 52.5 47.9286 51.7617 47.9286 50.8594ZM61 15.3125V63.4375C61 67.0605 58.0725 70 54.4643 70H6.53571C2.92746 70 0 67.0605 0 63.4375V15.3125C0 11.6895 2.92746 8.75 6.53571 8.75H13.0714V1.64062C13.0714 0.738281 13.8067 0 14.7054 0H20.1518C21.0504 0 21.7857 0.738281 21.7857 1.64062V8.75H39.2143V1.64062C39.2143 0.738281 39.9496 0 40.8482 0H46.2946C47.1933 0 47.9286 0.738281 47.9286 1.64062V8.75H54.4643C58.0725 8.75 61 11.6895 61 15.3125ZM54.4643 62.6172V21.875H6.53571V62.6172C6.53571 63.0684 6.90335 63.4375 7.35268 63.4375H53.6473C54.0967 63.4375 54.4643 63.0684 54.4643 62.6172Z" fill="#0B4455"/>
</svg>
