<svg width="76" height="60" viewBox="0 0 76 60" fill="none" xmlns="http://www.w3.org/2000/svg">
<path d="M69.6667 0H6.33333C2.83681 0 0 2.87946 0 6.42857V53.5714C0 57.1205 2.83681 60 6.33333 60H69.6667C73.1632 60 76 57.1205 76 53.5714V6.42857C76 2.87946 73.1632 0 69.6667 0ZM23.2222 12.8571C27.8799 12.8571 31.6667 16.7009 31.6667 21.4286C31.6667 26.1562 27.8799 30 23.2222 30C18.5646 30 14.7778 26.1562 14.7778 21.4286C14.7778 16.7009 18.5646 12.8571 23.2222 12.8571ZM38 44.5714C38 45.9911 36.6806 47.1429 35.0444 47.1429H11.4C9.76389 47.1429 8.44444 45.9911 8.44444 44.5714V42C8.44444 37.7411 12.416 34.2857 17.3111 34.2857H17.9708C19.5938 34.9687 21.3618 35.3571 23.2222 35.3571C25.0826 35.3571 26.8639 34.9687 28.4736 34.2857H29.1333C34.0285 34.2857 38 37.7411 38 42V44.5714ZM67.5556 37.5C67.5556 38.0893 67.0806 38.5714 66.5 38.5714H47.5C46.9194 38.5714 46.4444 38.0893 46.4444 37.5V35.3571C46.4444 34.7679 46.9194 34.2857 47.5 34.2857H66.5C67.0806 34.2857 67.5556 34.7679 67.5556 35.3571V37.5ZM67.5556 28.9286C67.5556 29.5179 67.0806 30 66.5 30H47.5C46.9194 30 46.4444 29.5179 46.4444 28.9286V26.7857C46.4444 26.1964 46.9194 25.7143 47.5 25.7143H66.5C67.0806 25.7143 67.5556 26.1964 67.5556 26.7857V28.9286ZM67.5556 20.3571C67.5556 20.9464 67.0806 21.4286 66.5 21.4286H47.5C46.9194 21.4286 46.4444 20.9464 46.4444 20.3571V18.2143C46.4444 17.625 46.9194 17.1429 47.5 17.1429H66.5C67.0806 17.1429 67.5556 17.625 67.5556 18.2143V20.3571Z" fill="#0B4455"/>
</svg>
