<svg width="21" height="21" viewBox="0 0 21 21" fill="none" xmlns="http://www.w3.org/2000/svg">
<path d="M18.375 2.625H17.3094C17.9829 3.78492 18.375 5.12736 18.375 6.5625C18.375 10.9048 14.8423 14.4375 10.5 14.4375C6.15768 14.4375 2.625 10.9048 2.625 6.5625C2.625 5.12736 3.01711 3.78492 3.69059 2.625H2.625C1.17756 2.625 0 3.80256 0 5.25V18.375C0 19.8224 1.17756 21 2.625 21H18.375C19.8224 21 21 19.8224 21 18.375V5.25C21 3.80256 19.8224 2.625 18.375 2.625ZM10.5 13.125C14.1246 13.125 17.0625 10.1871 17.0625 6.5625C17.0625 2.93795 14.1246 0 10.5 0C6.87545 0 3.9375 2.93795 3.9375 6.5625C3.9375 10.1871 6.87545 13.125 10.5 13.125ZM10.4877 6.89309L11.865 3.6791C12.0086 3.344 12.3957 3.1902 12.7276 3.33416C13.0606 3.47689 13.2148 3.86285 13.0725 4.19549L11.6915 7.41727C11.9655 7.71094 12.1406 8.09854 12.1406 8.53125C12.1406 9.43729 11.406 10.1719 10.5 10.1719C9.59396 10.1719 8.85938 9.43729 8.85938 8.53125C8.85938 7.62973 9.58781 6.90006 10.4877 6.89309Z" fill="#FFF"/>
</svg>
